<svg xmlns="http://www.w3.org/2000/svg" xmlns:xlink="http://www.w3.org/1999/xlink" version="1.1" x="0px" y="0px" viewBox="0 0 5 6.25" enable-background="new 0 0 5 5" xml:space="preserve"><g><g><path fill="#BEE3DB" d="M2.5,4.157c-0.913,0-1.657-0.743-1.657-1.657c0-0.913,0.744-1.657,1.657-1.657    c0.912,0,1.656,0.744,1.656,1.657C4.156,3.414,3.412,4.157,2.5,4.157z M2.5,1.07c-0.789,0-1.434,0.641-1.434,1.43    c0,0.79,0.645,1.435,1.434,1.435C3.289,3.935,3.93,3.29,3.93,2.5C3.93,1.711,3.289,1.07,2.5,1.07z"/></g><path fill="#BEE3DB" d="M1.537,2.232c0.108-0.088,0.257-0.12,0.422-0.24C2.1,1.884,2.248,1.698,2.332,1.545   c0.012-0.028,0.053-0.032,0.069-0.012c0.059,0.062,0.133,0.104,0.19,0.165c0.055,0.054,0.108,0.107,0.154,0.17   C2.777,1.909,2.81,1.954,2.847,1.996C2.86,2.008,2.869,2.021,2.88,2.033h0.004c0.024-0.013,0.104-0.107,0.132-0.112   c0.099-0.016,0.124,0.125,0.19,0.187C3.285,2.183,3.379,2.27,3.438,2.36S3.5,2.521,3.582,2.596   c0.014,0.008,0.062-0.021,0.076-0.024c0.027-0.009,0.094,0.074,0.123,0.082c0.004,0,0.004,0,0.008,0   c0.01-0.05,0.01-0.099,0.01-0.153c0-0.715-0.584-1.298-1.298-1.298c-0.719,0-1.301,0.583-1.301,1.298   c0,0.066,0.004,0.129,0.012,0.19C1.224,2.675,1.232,2.661,1.24,2.649C1.335,2.513,1.41,2.335,1.537,2.232z"/><path fill="#BEE3DB" d="M3.305,2.67L3.227,2.62L3.055,2.724c0,0-0.331-0.504-0.343-0.517c-0.013-0.013,0.024,0.77,0.024,0.77   L2.534,2.381L2.277,2.62L2.34,1.917L2.079,2.303L1.935,2.224L1.79,2.653L1.728,2.34c0,0-0.272,0.413-0.446,0.619   C1.467,3.451,1.942,3.803,2.5,3.803c0.479,0,0.9-0.265,1.128-0.653C3.607,3.121,3.578,3.08,3.545,3.029   C3.445,2.881,3.305,2.67,3.305,2.67z"/></g></svg>